<?xml version="1.0" encoding="utf-8"?>
<!-- Generator: Adobe Illustrator 17.1.0, SVG Export Plug-In . SVG Version: 6.00 Build 0)  -->
<!DOCTYPE svg PUBLIC "-//W3C//DTD SVG 1.1//EN" "http://www.w3.org/Graphics/SVG/1.1/DTD/svg11.dtd">
<svg version="1.1" id="Layer_1" xmlns="http://www.w3.org/2000/svg" xmlns:xlink="http://www.w3.org/1999/xlink" x="0px" y="0px"
	 viewBox="0 0 212.685 213.557" enable-background="new 0 0 212.685 213.557" xml:space="preserve">
<rect x="71.502" y="9.834" fill="#F499C1" width="130.727" height="203.722"/>
<path d="M202.229,0H10.456C4.681,0,0,4.681,0,10.456v192.645c0,5.774,4.681,10.456,10.456,10.456H112.88V130.68H85.262V97.878
	h27.618c0,0-0.138-20.438,0-30.531c0.138-10.093,11.492-35.578,40.257-35.578c24.755,0,27.082,0,27.251,0l0.014,31.288
	c0,0-15.658-1.262-20.704-0.757s-12.616,3.28-12.616,13.373c0,10.093,0.107,22.455,0.107,22.455l31.616-0.12l-4.328,32.338
	l-27.529-0.12v83.33h55.282c5.775,0,10.456-4.681,10.456-10.456V10.456C212.685,4.681,208.004,0,202.229,0z"/>
</svg>
