<?xml version="1.0" encoding="utf-8"?>
<!-- Generator: Adobe Illustrator 17.1.0, SVG Export Plug-In . SVG Version: 6.00 Build 0)  -->
<!DOCTYPE svg PUBLIC "-//W3C//DTD SVG 1.1//EN" "http://www.w3.org/Graphics/SVG/1.1/DTD/svg11.dtd">
<svg version="1.1" id="Layer_1" xmlns="http://www.w3.org/2000/svg" xmlns:xlink="http://www.w3.org/1999/xlink" x="0px" y="0px"
	 viewBox="0 0 213.701 214.577" enable-background="new 0 0 213.701 214.577" xml:space="preserve">
<path fill="#F499C1" d="M202.221,214.577H11.48c-6.34,0-11.48-5.14-11.48-11.48V11.48C0,5.14,5.14,0,11.48,0h190.742
	c6.34,0,11.48,5.14,11.48,11.48v191.618C213.701,209.437,208.561,214.577,202.221,214.577z"/>
<g>
	<path d="M66.68,69.69c10.054-10.569,24.242-17.168,39.981-17.168c15.739,0,29.927,6.599,39.981,17.168h67.059V9.183
		c0-5.072-4.111-9.183-9.183-9.183H55.686v52.839H47.26V0h-6.235v52.839h-8.426V0h-6.235v52.839h-8.426V0H9.183
		C4.111,0,0,4.111,0,9.183V69.69H66.68z M157.805,24.409c0-4.029,3.266-7.295,7.295-7.295h22.482c4.029,0,7.295,3.266,7.295,7.295
		v22.819c0,4.029-3.266,7.295-7.295,7.295H165.1c-4.029,0-7.295-3.266-7.295-7.295V24.409z"/>
	<path d="M152.123,76.43c6.13,8.891,9.727,19.664,9.727,31.28c0,30.48-24.709,55.188-55.188,55.188
		c-30.48,0-55.188-24.709-55.188-55.188c0-11.616,3.597-22.388,9.727-31.28H0v128.963c0,5.072,4.111,9.183,9.183,9.183h195.335
		c5.072,0,9.183-4.111,9.183-9.183V76.43H152.123z"/>
</g>
<circle fill="none" stroke="#000000" stroke-width="12" stroke-miterlimit="10" cx="106.852" cy="108.132" r="36.736"/>
</svg>
