<?xml version="1.0" encoding="utf-8"?>
<!-- Generator: Adobe Illustrator 17.1.0, SVG Export Plug-In . SVG Version: 6.00 Build 0)  -->
<!DOCTYPE svg PUBLIC "-//W3C//DTD SVG 1.1//EN" "http://www.w3.org/Graphics/SVG/1.1/DTD/svg11.dtd">
<svg version="1.1" id="Layer_1" xmlns="http://www.w3.org/2000/svg" xmlns:xlink="http://www.w3.org/1999/xlink" x="0px" y="0px"
	 viewBox="0 363.5 792 497" enable-background="new 0 363.5 792 497" xml:space="preserve">
<g>
	<ellipse cx="100.4" cy="603.1" rx="100.4" ry="116.2"/>
	<ellipse cx="691.6" cy="603.1" rx="100.4" ry="116.2"/>
	<path d="M402.1,363.5c0,0-38.4,41.3-110.1,30.3c-58.3-9-65.4,55.1-65.4,55.1s-160.3-2.5-150.3,61.9h640.2c0,0,35-55.8-150.3-66.8
		c0,0-0.1-65.8-76.3-52.6C429.2,402,402.1,363.5,402.1,363.5z"/>
	<path d="M403.3,860.5c0,0-38.4-46.1-110.1-33.8c-58.3,10-65.4-61.5-65.4-61.5S67.5,767.9,77.5,696h640.2c0,0,35,62.3-150.3,74.6
		c0,0-0.1,73.4-76.3,58.7C430.3,817.5,403.3,860.5,403.3,860.5z"/>
	<rect x="136" y="494.7" width="511.9" height="236.5"/>
</g>
<g>
	<ellipse fill="#F499C1" cx="137" cy="600.7" rx="88" ry="101"/>
	<ellipse fill="#F499C1" cx="655" cy="600.7" rx="88" ry="101"/>
	<path fill="#F499C1" d="M401.4,392.4c0,0-33.6,35.9-96.4,26.4c-51.1-7.8-57.3,47.9-57.3,47.9s-140.4-2.2-131.7,53.8h560.9
		c0,0,30.6-48.5-131.7-58.1c0,0-0.1-57.2-66.9-45.7C425.1,425.9,401.4,392.4,401.4,392.4z"/>
	<path fill="#F499C1" d="M402.4,824.5c0,0-33.6-40.1-96.4-29.4c-51.1,8.7-57.3-53.5-57.3-53.5s-140.4,2.4-131.7-60.1h560.9
		c0,0,30.6,54.2-131.7,64.8c0,0-0.1,63.8-66.9,51C426.1,787.1,402.4,824.5,402.4,824.5z"/>
	<rect x="168.2" y="506.5" fill="#F499C1" width="448.5" height="205.7"/>
</g>
<g>
	<path d="M170.1,591.2c-4.3,1.4-9.4,4.3-14.3,4.3c-2.5,0-5.6-0.5-5.6-3.8c0-4.2,8.5-14.3,11.2-17.9c1.6-2.2,2.9-4.3,5.6-5.1
		c7.6-1.8,15.7-2,23.4-3.4l52.7-62.6c6.5-7.8,33.1-34.8,42.7-34.8c6.2,0,9.1,6.5,9.1,11.8c0,11.6-14.8,32.8-20.6,43.1
		c1.4,0.2,3.3,0.5,3.3,2.5c0,3.3-7.6,8.7-10.1,10.5c-3.1,2.2-12.3,9.4-15.8,9.4c-3.3,0-4.2-2.7-4.2-5.4c0-13.6,15.6-33.3,24.3-43.1
		c1.4-1.6,1.6-3.4,0.4-3.4c-2.4,0-10.1,7.2-30.2,30.2L205.6,565c30.1,5.8,45.6,8.9,72.8,15.4l-9.6,9.6c-11.6,11.6-10.9,12-46.3,4.5
		c-15.9-3.4-32-5.6-48.3-5.1L170.1,591.2z"/>
	<path d="M312.9,582.3c-3.4,2.7-15,12.1-19.2,12.1c-5.1,0-15.6-12-15.9-21.4c-0.7-22.6,46.3-45.8,67.3-46.3
		c8.3-0.2,11.8,6.5,11.8,8.7c0,2.2-4.7,4-6.3,4.5c3.4,1.4,5.2,3.4,5.2,7.4c0,5.8-15.8,18.5-15.8,27c0,3.1,2.7,4.3,5.6,4.3
		c7.6,0,17.9-9.2,25.7-14.5l1.4,6.7c-7.8,8.9-32,28.2-40.9,28.2c-6,0-8.7-4.3-8.7-9.6c0-5.8,4.3-15.4,6.7-20.3l-0.4-0.4L312.9,582.3
		z M291,577.6c0.2,0.9,0.9,4.2,3.6,3.6c3.6-0.7,9.2-0.2,45.1-36.4l-0.4-0.4C296.2,557.7,291,568.8,291,577.6z"/>
	<path d="M397.6,624.7c-1.8,2-6.9,9.1-9.8,9.1c-3.8,0-5.4-8.9-5.4-12c0-2.9,3.4-8.5,4.9-10.9l24.3-40.9l-0.4-0.4
		c-14.8,12.5-28.1,22.3-30.2,22.1c-5.1-0.4-13.8-8-14.3-21.4c-0.7-21.7,30.2-44.7,35.3-44.9c2.7,0,7.8,5.8,7.8,8.3
		c0,6.9-20.5,25.7-26.4,30.4c-2.2,3.1-3.3,6.7-3.4,10.5c9.6-1.1,18.3-8.9,25.9-15.9c18.6-17.2,30.2-29.7,33.7-30.2
		c3.1-0.5,4.9,6.5,4.9,9.1c0,4.7-4.9,12.1-7.4,15.9l-26.8,39.8l0.4,0.4l40.2-35.7l1.4,6.7L397.6,624.7z"/>
	<path d="M511.5,567.7c-11,12.9-31,29.9-48.9,29.9c-13.2,0-19.4-11.8-19.7-23.7c-0.7-23.7,25.5-48,49.1-47.8c5.8,0,13,1.4,13,8.7
		c0,8.9-8.9,22.3-43.6,33.7l-0.4,4c-0.5,6.9,5.4,9.2,11.2,9.2c12.9,0,28.1-13.2,37.7-20.8L511.5,567.7z M489,538.5
		c0-1.3-0.9-2.4-2.2-2c-9.1,2.4-19.6,11-24.4,23C478.4,554.1,489.2,541.6,489,538.5z"/>
	<path d="M518,555.4c-6.3,10-13.9,14.7-21.7,22.4l-0.7-8c4.7-3.8,8.5-8.3,12-13.2c-3.8-0.4-4.9-1.8-4.9-5.6
		c0-13,18.5-26.1,22.8-26.1c1.8,0,3.3,1.4,3.3,3.1c0,1.8-0.5,3.4-1.3,5.1c17-2.4,27-4.5,28.8-2.4c2.7,3.4,4,6.3,4.3,9.6
		c0,5.6-3.4,8.3-7.6,11.8c-5.2,4.5-14.1,13.4-14.1,20.6c0,2.9,2.9,5.1,5.6,5.1c7.8,0,19.2-11.8,25.2-16.3l1.3,6.7
		c-6.9,7.8-27.7,27.9-38,27.9c-7.6,0-12.3-7.1-12.3-13.9c0-12.3,9.4-21.9,16.7-30.6l-0.4-0.4L518,555.4z"/>
	<path d="M627.7,563.5l1.8,6.9c-11,11-30.8,27.5-45.3,26.8c-12.1-0.5-25.5-7.4-28.8-20.6c-1.1,1.1-2.4,2.4-4,2.4
		c-1.8,0-3.1-1.8-3.1-3.4c0-2.4,2.9-4.9,4.3-6.3l39.3-36c0.4-6,3.8-11.8,10.3-11.8c5.4,0,6.5,1.6,7.1,6.7c0.7,6.9,3.4,13,3.4,21
		c0,14.8-12,25.9-23.5,32.9c11.6,2,18.6-3.4,27.5-10.1L627.7,563.5z M566.1,567.3c6.7,0.4,10.7,6,14.1,10.7
		c10.9-6.7,13.8-9.8,14.3-20.3c-0.5-3.8-1.3-8.7-2.4-14.8L566.1,567.3z"/>
</g>
<g>
	<path fill="#FFFFFF" d="M204.3,691.1v-40.9h15.2c7.3,0,12.2,2.8,12.2,10.6c0,3.7-1.2,6.7-4.5,8.4v0.1c5.9,0.8,8.4,4.7,8.4,10.4
		c0,8.6-7.3,11.4-14.8,11.4L204.3,691.1L204.3,691.1z M214.9,666.2h1.2c2.8,0,5.8-0.5,5.8-4c0-3.7-3.3-4-6.2-4h-0.8V666.2z
		 M214.9,682.9h1.4c3.1,0,8.5,0.2,8.5-4.3c0-4.9-5.3-4.5-8.7-4.5h-1.1L214.9,682.9L214.9,682.9z"/>
	<path fill="#FFFFFF" d="M285.1,683.9l-2.8,7.1H271l15.7-40.9h11.6l15.4,40.9h-11.3l-2.7-7.1H285.1z M292.6,662.8h-0.1l-4.4,13h8.8
		L292.6,662.8z"/>
	<path fill="#FFFFFF" d="M374.4,650.1h13.2l-16.3,19.4l17.8,21.6h-13.8l-13.7-17.8h-0.1v17.8h-10.6v-40.9h10.6V667h0.1L374.4,650.1z
		"/>
	<path fill="#FFFFFF" d="M436.2,659.1v6.8h12v9h-12v7.1h12.7v9h-23.3v-40.9h23.3v9L436.2,659.1L436.2,659.1z"/>
	<path fill="#FFFFFF" d="M523.2,691.1h-13.2l-10-15.7h-0.1v15.7h-10.6v-40.9h15.9c8.1,0,14.2,3.9,14.2,12.6c0,5.6-3.1,10.5-9,11.6
		L523.2,691.1z M499.8,668.5h1c3.5,0,7.4-0.7,7.4-5.1s-3.9-5.1-7.4-5.1h-1V668.5z"/>
	<path fill="#FFFFFF" d="M553.1,650.1h12.8l7.7,11.1l7.7-11.1h12.8l-15.1,21.3v19.7h-10.6v-19.7L553.1,650.1z"/>
</g>
<g>
	<circle cx="390.4" cy="744.9" r="13.7"/>
	<circle cx="413.7" cy="744.9" r="13.7"/>
	<path d="M423.4,754.6c0,0-19,15.3-21.4,25.4c0,0-3.2-12-21.7-25.8L423.4,754.6z"/>
	<ellipse cx="402.7" cy="752.7" rx="3.7" ry="6"/>
</g>
<g>
	<circle cx="389.6" cy="459.6" r="13.7"/>
	<circle cx="412.9" cy="459.6" r="13.7"/>
	<path d="M422.6,469.3c0,0-19,15.3-21.4,25.4c0,0-3.2-12-21.7-25.8L422.6,469.3z"/>
	<ellipse cx="401.9" cy="467.4" rx="3.7" ry="6"/>
</g>
</svg>
