<?xml version="1.0" encoding="utf-8"?>
<!-- Generator: Adobe Illustrator 17.1.0, SVG Export Plug-In . SVG Version: 6.00 Build 0)  -->
<!DOCTYPE svg PUBLIC "-//W3C//DTD SVG 1.1//EN" "http://www.w3.org/Graphics/SVG/1.1/DTD/svg11.dtd">
<svg version="1.1" id="Layer_1" xmlns="http://www.w3.org/2000/svg" xmlns:xlink="http://www.w3.org/1999/xlink" x="0px" y="0px"
	 viewBox="0 0 256.332 257.382" enable-background="new 0 0 256.332 257.382" xml:space="preserve">
<path fill="#F499C1" d="M213.582,229.815H42.749c-8.447,0-15.295-6.848-15.295-15.295V42.862c0-8.447,6.848-15.295,15.295-15.295
	h170.833c8.447,0,15.295,6.848,15.295,15.295V214.52C228.877,222.967,222.029,229.815,213.582,229.815z"/>
<path d="M236.867,0H19.464C8.714,0,0,8.714,0,19.464v218.454c0,10.75,8.714,19.464,19.464,19.464h217.403
	c10.75,0,19.464-8.714,19.464-19.464V19.464C256.332,8.714,247.617,0,236.867,0z M163.695,169.685
	c-17.375,5.212-30.927,1.39-41.352-10.425c0,0-6.255,28.147-10.425,36.487c-4.17,8.34-9.513,18.782-17.266,27.287
	c0,0-5.321-22.769-2.193-38.406c3.127-15.637,14.595-60.116,14.595-60.116s-6.95-13.205,0-31.622s30.232-14.247,31.622,0
	c1.39,14.247-11.985,40.309-10.51,46.216c1.475,5.907,11.9,22.24,32.055,9.73c20.155-12.51,24.324-61.159,10.077-76.101
	c-14.247-14.942-49.242-25.356-76.448,4.517c-17.722,19.46-9.035,47.259-2.375,51.439c1.842,1.156,0.985,6.47-1.1,11.743
	c-2.085,5.274-3.475,7.359-11.467,2.494s-23.282-26.409-10.425-60.811c12.857-34.402,54.209-43.784,72.626-42.047
	c18.417,1.737,61.854,12.857,63.243,56.641C205.742,140.496,181.07,164.473,163.695,169.685z"/>
</svg>
