<?xml version="1.0" encoding="utf-8"?>
<!-- Generator: Adobe Illustrator 17.1.0, SVG Export Plug-In . SVG Version: 6.00 Build 0)  -->
<!DOCTYPE svg PUBLIC "-//W3C//DTD SVG 1.1//EN" "http://www.w3.org/Graphics/SVG/1.1/DTD/svg11.dtd">
<svg version="1.1" id="Layer_1" xmlns="http://www.w3.org/2000/svg" xmlns:xlink="http://www.w3.org/1999/xlink" x="0px" y="0px"
	 viewBox="0 0 242.249 243.242" enable-background="new 0 0 242.249 243.242" xml:space="preserve">
<rect x="20.948" y="14.83" fill="#F499C1" width="208.253" height="202.439"/>
<path d="M230.525,0H11.724C5.249,0,0,5.249,0,11.724v219.794c0,6.475,5.249,11.724,11.724,11.724h218.801
	c6.475,0,11.724-5.249,11.724-11.724V11.724C242.249,5.249,237,0,230.525,0z M202.028,80.206c0,0,4.132,35.002-20.904,69.517
	c-25.036,34.516-81.914,62.225-143.896,26.008c0,0,31.113,4.375,55.176-16.042c0,0-22.848,2.188-35.002-26.008
	c0,0,8.021,3.16,17.015-0.486c0,0-28.439-4.132-30.14-37.432c0,0,7.049,5.104,16.772,4.861c0,0-10.938-7.535-14.584-19.202
	c-3.646-11.667-1.701-24.064,2.917-31.356c0,0,27.71,37.675,78.268,39.377c0,0-5.347-19.932,9.723-35.488
	c15.07-15.556,40.835-13.126,54.447,0.729c0,0,9.237-0.486,24.064-8.75c0,0-6.32,15.799-16.286,20.904
	c0,0,13.855-2.431,20.904-5.834C220.502,61.004,211.508,74.373,202.028,80.206z"/>
</svg>
